<?xml version="1.0" encoding="utf-8"?>
<!-- Generator: Adobe Illustrator 24.1.2, SVG Export Plug-In . SVG Version: 6.00 Build 0)  -->
<svg version="1.1" id="guide" xmlns="http://www.w3.org/2000/svg" xmlns:xlink="http://www.w3.org/1999/xlink" x="0px" y="0px"
	 viewBox="0 0 500 500" style="enable-background:new 0 0 500 500;" xml:space="preserve">
<style type="text/css">
	.st0{fill:#FFFFFF;}
</style>
<g>
	<g>
		<path class="st0" d="M176.13,110.9c-1.79,3.43-3.77,6.79-5.34,10.32c-12.44,27.94-30.92,50.48-58.57,64.44
			c-16.16,8.16-33.28,13.34-51.69,10.74c-14.14-2-26.64-8.59-38.71-15.83c-4.19-2.52-4.85-8.26-1.74-11.88
			c0.62-0.72,3.07-0.63,4.19-0.02c2.25,1.23,4.16,3.09,6.21,4.67c17.35,13.34,36.73,15.81,57.22,9.74
			c34.34-10.17,57.54-33.08,71.78-65.31c9.93-22.48,16.53-45.86,15.87-70.84c-0.27-10.08,0.09-20.17,0.17-30.26
			c0.04-4.89,2.59-7.91,6.39-7.62c3.46,0.27,5.31,3.64,5.29,8.21c-0.09,33.46-0.11,66.91,0.01,100.37
			c0.03,7.54,2.05,15.31,0.77,22.56c-1.46,8.26-4.69,16.54-8.7,23.98c-15.13,28.08-37.87,47.86-67.48,59.82
			c-34.21,13.82-66.41,8.1-97.3-9.92c-1.52-0.88-2.64-3.54-2.77-5.45c-0.2-2.76,0.68-5.59,1.21-9.16c2.58,1.53,4.65,2.3,6.13,3.7
			c11.42,10.76,25.71,14.11,40.58,16.2c20.1,2.82,38.7-1.77,56.74-10.44c19.13-9.2,34.32-22.97,45.99-40.26
			c8.78-13,14.01-27.72,13.8-43.89c-0.06-4.48,0.62-8.97,0.95-13.45C176.81,111.17,176.47,111.04,176.13,110.9z"/>
		<path class="st0" d="M488.75,261.97c-5.79-3.68-11.62-7.37-17.75-10.43c-11.51-5.76-23.97-7.86-36.72-8.88
			c-25.62-2.06-50.01,1.79-72.56,14.58c-20.16,11.43-36.92,26.28-47,49.36c0-2.66-0.03-3.95,0-5.23c0.3-10.54,0.74-21.07,0.84-31.61
			c0.03-3.47,1.07-6,3.5-8.48c21.3-21.8,47.3-34.82,76.84-41.01c32.47-6.8,62.46-0.73,89.76,18.27c1.37,0.95,3.1,1.39,4.73,2.09
			c2.75-10.03,2.03-11.49-5.85-16.31c-29.01-17.77-60.46-21.14-93.24-15.41c-26.37,4.61-49.21,16.86-69.51,34.09
			c-1.81,1.54-3.69,3.02-6.52,5.33c0-7.06,0.79-13.09-0.2-18.8c-1.27-7.38,1.63-11.57,7.42-15.39
			c27.16-17.93,56.46-29.48,89.27-31.13c24.39-1.23,46.97,4.22,67.33,18.04c2.44,1.66,5.14,2.94,8.56,4.87
			c-0.51-6.46-0.23-12.2-5.23-15.57c-11.92-8.02-25.19-13.27-39.24-15.86c-27.27-5.01-54.15-2.49-80.49,6
			c-16.98,5.47-32.37,13.98-47.58,25.44c0-9.12,0-17.54,0-27.92c8.43-4.06,18.12-9.66,28.45-13.52
			c21.86-8.15,44.82-11.81,67.93-14.44c21.66-2.46,41.66,1.48,59.2,15.16c1.38,1.08,3.04,1.79,5.55,3.23
			c-0.93-5.09-1.35-9.2-2.52-13.08c-0.61-2.03-2.15-4.59-3.92-5.3c-8.74-3.52-17.48-8.14-26.63-9.39
			c-36.48-4.96-71.83,0.8-106.02,14.05c-7.59,2.94-14.97,6.4-22.46,9.63c0-5.44-0.11-10.77,0.04-16.09c0.09-3.28-0.8-5.22-4.81-4.53
			c3.91-2.13,7.55-4.04,11.35-5.57c19.63-7.91,39.65-14.13,61.13-14c7.33,0.04,14.67,0.19,21.99-0.11
			c11.69-0.48,11.69-0.62,8.31-11.77c-0.21-0.68-0.6-1.3-0.61-1.31c-10.77,0.81-21.03,1.58-31.39,2.36
			c-0.25-1.47-0.48-2.21-0.48-2.95c-0.01-21.86,0.06-43.71-0.05-65.57c-0.01-2.63-0.27-5.77-1.71-7.72
			c-1.32-1.78-4.44-3.19-6.68-3.07c-3.15,0.17-3.91,3.07-3.88,6.21c0.19,16.51,0.23,33.02,0.29,49.53
			c0.03,8.05,0.01,16.09,0.01,23.78c-7.24,1.31-13.72,2.48-20.58,3.71c0-7.34-0.1-14.82,0.02-22.3c0.35-22.62,0.77-45.23,1.18-67.84
			c0.08-4.3-2.97-8.48-6.41-8.7c-3.42-0.21-6.55,3.2-6.52,7.28c0.23,28.59,0.48,57.17,0.72,85.76c0.03,3.15,0,6.31,0,8.19
			c-7.71,2.76-14.61,5.23-21.71,7.77c-0.05-1.17-0.19-2.64-0.18-4.11c0.1-19.87,0.21-39.75,0.34-59.62
			c0.11-15.89,0.27-31.79,0.36-47.68c0.02-4.14-3-7.67-6.33-7.62c-3.27,0.05-6.11,3.51-6.08,7.28c0.29,38.06,0.58,76.12,0.8,114.18
			c0.01,1.21-0.33,3.02-1.15,3.54c-6.49,4.11-13.14,7.98-19.92,12.03c-0.07-0.9-0.17-1.64-0.17-2.38
			c0.07-39.44,0.14-78.89,0.22-118.33c0.01-5.35,0.24-10.71-0.02-16.04c-0.17-3.45-2.02-6.22-5.73-6.64
			c-3.12-0.36-5.6,2.91-5.59,6.89c0.11,44.64,0.04,89.28,0.53,133.92c0.08,7.15-0.33,12.78-7.78,15.65
			c-0.94,0.36-1.69,1.3-2.46,2.03c-3.59,3.4-7.15,6.82-10.75,10.26c-0.18-0.36-0.42-0.62-0.41-0.87
			c0.26-46.78,0.55-93.55,0.81-140.33c0.04-7.49,0.12-14.99-0.23-22.46c-0.19-3.97-3.94-7.78-6.51-7c-3.53,1.08-5.22,3.62-5.21,7.6
			c0.14,55.34,0.07,110.68,0.37,166.02c0.03,5.64-0.69,9.74-5.87,12.8c-2.81,1.66-4.95,4.51-7.25,6.95
			c-2.52,2.67-4.89,5.49-7.82,8.81c-0.18-1.5-0.3-2.07-0.3-2.63c0.02-27.51-0.04-55.02,0.09-82.53c0.16-35.46,0.48-70.93,0.7-106.39
			c0.03-4.29-2.43-7.5-5.67-7.62c-3.17-0.11-6.05,3.24-6.08,7.28c-0.28,43.37-0.66,86.74-0.71,130.11
			c-0.01,10.13-2.51,19.29-7.56,27.91c-11.38,19.4-26.44,35.91-42.59,51.2c-18.84,17.84-40.86,30.18-67.38,33.33
			c-25.03,2.97-48.72,0.2-70.57-13.3c-2.83-1.75-6.26-2.51-9.52-3.78c-2.39,9.86-1.07,12.69,6.84,16.27
			c3.34,1.51,6.66,3.06,10.03,4.49c23.52,9.94,47.97,12.13,72.78,6.99c28.81-5.96,52.85-20.96,73.55-41.57
			c0.99-0.99,2.01-1.93,2.99-2.83v24.5c-18.88,18.1-39.9,32.72-65.44,40.03c-32.79,9.38-64.02,6.21-93.46-11.61
			c-1.91-1.16-4.34-1.46-7.1-2.35c0.6,6.72-0.08,12.71,6.56,15.86c17.8,8.46,36.19,14.9,56.12,15.23
			c33.61,0.56,63.68-9.71,90.18-30.4c4.3-3.36,8.64-6.72,13.14-10.2v24.93c-1.73,2.5-4.32,4.6-7.53,6.63
			c-17.78,11.26-34.72,23.42-56.07,28.12c-31.19,6.87-60.89,5.57-89.19-10.37c-2.15-1.21-4.52-2.05-6.95-3.13
			c-1.27,9.76,0.07,12.53,7.68,16.42c2.04,1.04,4.13,2,6.25,2.86c31.67,12.84,63.77,12.66,96,2.6
			c14.97-4.67,28.48-12.51,41.43-21.28c2.98-2.01,5.89-4.07,8.41-5.82v24.45c-9.76,6.23-19.18,13.33-29.71,17.77
			c-12.98,5.47-26.98,8.63-40.69,12.2c-14.55,3.79-29.39,4.32-44.03,0.58c-9.28-2.37-18.29-5.79-27.43-8.72
			c-2.07-0.66-4.17-1.21-6.71-1.93c0.08,5.88,0.28,11.11,5.69,13.26c9.32,3.7,18.71,7.49,28.4,9.95
			c14.62,3.71,29.49,0.98,44.25-0.06c1.26-0.09,2.53-0.01,4.27-0.01c0,28.17,0,55.68,0,83.19c0,0.61-0.04,1.23,0.03,1.83
			c0.39,3.29,3.97,6.09,7.62,5.78c3.9-0.32,4.3-2.93,4.17-6.23c-0.26-6.41-0.15-12.83-0.25-19.25c-0.31-20.94-0.48-41.88-1.14-62.81
			c-0.12-3.86,0.8-5.5,4.25-6.7c16.3-5.7,32.37-11.94,46.93-21.45c1.33-0.87,2.76-1.6,4.35-2.44v20.19c-0.41,0.34-0.93,0.64-1.6,0.9
			c-7.53,2.94-14.94,6.21-22.47,9.16c-9.06,3.54-10.37,5.45-9.53,14.9c0.07,0.76,0.11,1.53,0.11,2.29c0.01,26.29,0,52.59,0.02,78.88
			c0,1.83-0.09,3.71,0.28,5.48c0.78,3.74,4.09,4.82,6.99,4.38c1.59-0.24,3.67-3.06,3.96-4.96c0.6-3.88,0.13-7.92,0.11-11.89
			c-0.15-24.31-0.34-48.61-0.36-72.92c0-1.9,0.61-4.93,1.84-5.5c6.41-2.95,13.11-5.27,19.98-7.91c0.1,1.14,0.22,1.87,0.23,2.6
			c0.16,27.17,0.32,54.34,0.44,81.51v3.97c0,7.27-0.11,14.55-0.04,21.82c0.04,3.73,2.78,5.89,6.79,5.68
			c3.63-0.19,4.43-2.47,4.35-5.66c-0.17-6.72-0.21-13.45-0.22-20.18c-0.02-30.12-0.03-60.23,0.05-90.35c0-1.51,0.36-3.82,1.35-4.41
			c6.47-3.85,13.16-7.33,19.99-11.05c0,1.02,0,2.06,0,3.1c-0.07,38.07-0.16,76.13-0.2,114.2c-0.01,5.19-0.11,10.41,0.38,15.57
			c0.43,4.45,3.58,7.42,6.58,6.79c4.06-0.85,4.39-4.08,4.36-7.47c-0.1-11.31-0.23-22.63-0.22-33.94
			c0.02-30.42,0.14-60.84,0.16-91.27c0-8.49-0.35-16.94,9.61-20.96c1.85-0.75,3.14-2.85,4.72-4.29c1.98-1.82,3.98-3.61,6.74-6.1
			c0.18,3.43,0.42,5.83,0.41,8.22c-0.17,44.33-0.37,88.67-0.57,133c-0.03,5.96-0.13,11.92-0.09,17.89c0.02,4.19,3.09,7.88,6.22,7.7
			c3.16-0.18,5.62-3.54,5.6-7.65c0-0.61-0.04-1.22-0.04-1.83c-0.03-52.74,0-105.48-0.15-158.22c-0.02-6.3,0.16-11.95,6.82-15.21
			c1.95-0.96,3.35-3.08,4.94-4.74c2.66-2.77,5.27-5.6,8.7-9.26c0,3.22,0,5.16,0,7.11c0,33.79,0.01,67.57-0.01,101.36
			c-0.01,26.14-0.08,52.29-0.03,78.43c0,1.86,0.22,4.47,1.39,5.41c1.65,1.31,4.42,2.15,6.47,1.81c3.37-0.56,3.32-3.72,3.32-6.6
			c-0.03-64.36-0.02-128.72,0.02-193.08c0-1.15,0.05-2.65,0.73-3.39c6.44-6.99,13.02-13.85,20.07-21.3c0.12,2.77,0.25,5,0.31,7.22
			c0.29,10.39,0.65,20.78,0.8,31.17c0.09,6.08-0.07,12.17-0.27,18.25c-0.29,8.69-1.05,17.37-1.03,26.06
			c0.05,18.95,0.72,37.9,0.67,56.85c-0.06,24.15-0.57,48.3-0.87,72.45c-0.04,3.14,3.94,8.4,6.01,7.42c2.36-1.12,4.02-3.93,5.64-6.25
			c0.59-0.85,0.28-2.38,0.28-3.6c-0.02-13.15-0.4-26.3,0-39.44c0.4-13.26,0.78-26.62,2.67-39.71c1.27-8.79,4.69-17.38,7.96-25.74
			c4.76-12.19,9.35-24.6,15.62-36.03c10.8-19.68,25.48-36.05,47.11-44.25c8.62-3.27,17.82-5.47,26.95-6.83
			c23.27-3.47,44.51,2.09,63.59,16c1.57,1.15,5.06,2.23,5.77,1.5c2.11-2.15,3.17-5.26,0.97-8.28c-0.71-0.98-1.57-1.87-2.49-2.66
			c-8.5-7.31-18.36-12.16-29.08-14.99c-16.97-4.48-34.43-4.96-51.41-1.43c-38.85,8.07-63.5,33.3-78.51,68.83
			c-3.61,8.53-5.69,17.7-8.5,26.57c-0.52,1.63-1.15,3.22-1.73,4.83c-0.91-0.99-1-1.71-0.97-2.42c0.54-12.81,0.81-25.63,1.76-38.41
			c0.44-6,0.9-12.58,3.6-17.72c5.49-10.49,11.34-21.19,19.07-30.04c34.84-39.86,97.79-53.68,147.41-19.56
			c1.26,0.87,2.76,1.4,4.77,2.4c0.49-3.52,1.17-6.22,1.12-8.9C490.83,264.67,489.9,262.7,488.75,261.97z M202.42,262.53
			c-5.73,4.4-10.89,9.54-16.12,14.21v-25.88c6.96-7.53,14.16-14.84,22.02-22.99c0,7.75-0.45,14.7,0.14,21.57
			C208.97,255.28,206.96,259.05,202.42,262.53z M208.43,179.15c0,3.05,0.06,6.12-0.01,9.19c-0.17,7.47-0.37,14.93-0.63,22.4
			c-0.04,1.02-0.17,2.36-0.81,2.99c-6.87,6.78-13.85,13.45-20.67,20.03v-26.48C193.56,198.01,200.87,188.74,208.43,179.15z
			 M208.2,340.39c-0.04,1.38-1.28,3.18-2.49,4c-6.17,4.14-12.51,8.03-19.07,12.18c-0.11-1.74-0.23-3.44-0.34-5.12v-17.32
			c7.1-5.49,14.26-10.92,22.01-16.82C208.32,325.27,208.45,332.83,208.2,340.39z M197.87,310.07c-4.12,2.07-7.76,5.12-11.56,7.82
			v-23.98c0.27-0.54,0.59-1.03,0.96-1.41c6.24-6.46,12.72-12.68,19.14-18.97c0.3-0.29,0.72-0.45,1.76-1.06
			c0,5.54-0.65,10.73,0.14,15.68C209.89,298.1,207.26,305.36,197.87,310.07z M218.79,217.89c6.81-7.35,13.71-14.62,20.58-21.91
			c0.44,0.16,0.89,0.31,1.33,0.47c0,9.57,0.02,19.14-0.04,28.72c-0.01,0.8-0.42,1.81-1,2.35c-6.86,6.44-13.8,12.81-21.28,19.72
			c0-3.12,0.02-6.03,0-8.94c-0.04-5.95-0.11-11.9-0.12-17.85C218.26,219.58,218.28,218.44,218.79,217.89z M218.7,273.04
			c-0.7-7.57,1.92-12.95,7.84-17.49c4.81-3.68,9.06-8.1,13.69-12.32c0,9.09,0,18.81,0,27.95c-7.16,6.93-14.44,13.99-21.41,20.75
			C218.83,286.3,219.32,279.62,218.7,273.04z M240.24,317.88c-1.9,4.37-7.73,7-11.73,10.51c-3.06,2.69-5.96,5.57-9.95,9.32
			c0-6.39,0.41-11.5-0.09-16.52c-0.87-8.69,1.16-15.47,8.95-20.63c4.44-2.94,7.67-7.7,11.45-11.64c0.49,0.18,0.99,0.37,1.48,0.55
			c0,4.06-0.04,8.12,0.01,12.17C240.44,307.12,242.22,313.31,240.24,317.88z M259.39,178.4c4.14-3,7.57-6.97,11.32-10.5
			c0.57,0.14,1.13,0.28,1.7,0.41c0,8.93,0.05,17.87-0.07,26.8c-0.01,1.06-0.64,2.53-1.47,3.09c-7.48,5.03-13.78,11.22-19.44,18.66
			c0-6.15,0.73-12.41-0.17-18.42C249.96,189.82,252.32,183.52,259.39,178.4z M272.36,286.23c-0.01,0.81-0.5,1.79-1.08,2.4
			c-6.12,6.55-12.31,13.04-18.49,19.54c-0.47,0.5-1.08,0.87-1.38,1.11c0-10.1-0.05-20.1,0.08-30.1c0.01-1,0.93-2.16,1.71-2.96
			c5.89-5.95,11.85-11.82,17.79-17.72c0.47-0.01,0.95-0.01,1.42-0.02C272.41,267.73,272.43,276.98,272.36,286.23z M272.52,240.63
			c-0.01,0.8-0.42,1.81-0.99,2.38c-6.74,6.73-13.54,13.4-20.27,20.02c0-2.71,0.01-6.08,0-9.45c-0.02-6.4-0.09-12.81-0.03-19.21
			c0.01-1.1,0.22-2.55,0.93-3.24c6.28-6.16,12.69-12.19,19.06-18.26c0.45-0.01,0.9-0.02,1.35-0.03
			C272.57,222.1,272.59,231.36,272.52,240.63z M282.64,162.08c0.01-0.89,0.62-2.1,1.34-2.61c6.51-4.68,13.11-9.24,19.69-13.84
			c0.51,0.18,1.02,0.36,1.53,0.55c0,7.81,0.08,15.63-0.09,23.44c-0.02,1.08-1.06,2.44-2.02,3.15c-6.67,4.93-13.44,9.72-20.5,14.78
			C282.58,179.37,282.54,170.73,282.64,162.08z M293.48,194.03c3.4-2.23,6.38-5.1,9.55-7.68c0.64,0.11,1.28,0.21,1.93,0.32
			c0,8.67,0.05,17.34-0.08,26.01c-0.01,0.81-1.01,1.75-1.76,2.39c-6.55,5.6-13.15,11.15-20.31,17.21c0-4.73,0.68-9.75-0.14-14.51
			C280.84,207.17,284.78,199.72,293.48,194.03z M298.5,263.06c-5.43,4.53-10.14,9.92-15.59,15.35c0-1.42,0-2.79,0-4.17
			c-0.01-5.79,0.53-11.65-0.18-17.36c-0.77-6.16,1.43-10.39,5.86-14.21c5.17-4.47,10.1-9.23,16.25-14.9c0,7.64-0.77,14.1,0.21,20.29
			C306.14,254.95,303.41,258.97,298.5,263.06z"/>
	</g>
</g>
</svg>
